<svg width="29" height="30" viewBox="0 0 29 30" fill="currentColor" xmlns="http://www.w3.org/2000/svg">
<g clip-path="url(#clip0_99_2)">
<path d="M24.1429 3.28564H23.1786V2.17491C23.1786 1.5599 22.7796 1.03204 22.2607 1.00132C22.1303 0.993879 22 1.01788 21.8777 1.07189C21.7554 1.12589 21.6436 1.20876 21.5491 1.31549C21.4546 1.42221 21.3793 1.55056 21.3279 1.69277C21.2765 1.83497 21.25 1.98806 21.25 2.14277V3.28564H7.75V2.17491C7.75 1.5599 7.35103 1.03204 6.83212 1.00132C6.70174 0.993879 6.57144 1.01788 6.44912 1.07189C6.3268 1.12589 6.215 1.20876 6.1205 1.31549C6.026 1.42221 5.95077 1.55056 5.89936 1.69277C5.84795 1.83497 5.82144 1.98806 5.82143 2.14277V3.28564H4.85714C3.83416 3.28564 2.85309 3.76728 2.12973 4.6246C1.40638 5.48192 1 6.64469 1 7.85713V8.71428C1 8.79006 1.0254 8.86273 1.07061 8.91632C1.11582 8.9699 1.17714 9 1.24107 9H27.7589C27.8229 9 27.8842 8.9699 27.9294 8.91632C27.9746 8.86273 28 8.79006 28 8.71428V7.85713C28 6.64469 27.5936 5.48192 26.8703 4.6246C26.1469 3.76728 25.1658 3.28564 24.1429 3.28564Z" fill="currentColor" stroke="currentColor"/>
<path d="M27.8192 12H1.1808C1.13285 12 1.08686 12.0177 1.05296 12.0491C1.01905 12.0806 1 12.1233 1 12.1678V25.4211C1 26.3702 1.40638 27.2806 2.12973 27.9517C2.85309 28.6229 3.83417 29 4.85714 29H24.1429C25.1658 29 26.1469 28.6229 26.8703 27.9517C27.5936 27.2806 28 26.3702 28 25.4211V12.1678C28 12.1233 27.981 12.0806 27.947 12.0491C27.9131 12.0177 27.8671 12 27.8192 12ZM12.5714 19.3497C12.5714 19.7734 12.39 20.1798 12.0671 20.4794C11.7442 20.779 11.3062 20.9474 10.8496 20.9474H6.579C6.12233 20.9474 5.68437 20.779 5.36146 20.4794C5.03855 20.1798 4.85714 19.7734 4.85714 19.3497V15.3871C4.85714 14.9634 5.03855 14.557 5.36146 14.2574C5.68437 13.9578 6.12233 13.7895 6.579 13.7895H10.8496C11.3062 13.7895 11.7442 13.9578 12.0671 14.2574C12.39 14.557 12.5714 14.9634 12.5714 15.3871V19.3497Z" fill="currentColor" stroke="currentColor"/>
</g>
<defs>
<clipPath id="clip0_99_2">
<rect width="29" height="30" fill="currentColor"/>
</clipPath>
</defs>
</svg>
