<svg width="155" height="155" viewBox="0 0 155 155" fill="none" xmlns="http://www.w3.org/2000/svg">
<path d="M98.6508 77.506H7M7 77.506L31.6752 56.3542M7 77.506L31.6752 98.6578" stroke="#EC5B15" stroke-width="13.5" stroke-linecap="round" stroke-linejoin="round"/>
<path d="M56.3643 42.253C56.4496 26.9177 57.1296 18.6128 62.5467 13.1952C68.7417 7 78.7119 7 98.6523 7H105.702C125.643 7 135.614 7 141.808 13.1952C148.003 19.3905 148.003 29.3615 148.003 49.3036V105.708C148.003 125.65 148.003 135.621 141.808 141.817C136.391 147.234 128.086 147.915 112.751 148M56.3643 112.759C56.4496 128.094 57.1296 136.399 62.5467 141.817C67.068 146.338 73.5999 147.56 84.5508 147.89" stroke="#EC5B15" stroke-width="13.5" stroke-linecap="round"/>
</svg>
