<svg width="161" height="161" viewBox="0 0 161 161" fill="none" xmlns="http://www.w3.org/2000/svg">
<g clip-path="url(#clip0_119_2)">
<path fill-rule="evenodd" clip-rule="evenodd" d="M95.5729 1.22553C92.4351 3.59863e-07 88.4567 0 80.4999 0C72.5431 0 68.5647 3.59863e-07 65.4269 1.22553C61.2426 2.8596 57.9183 5.99387 56.1852 9.93877C55.394 11.7396 55.0844 13.8339 54.9632 16.8888C54.7852 21.3782 52.3432 25.5337 48.2166 27.78C44.09 30.0262 39.0521 29.9423 34.8394 27.843C31.9727 26.4145 29.8942 25.6201 27.8444 25.3657C23.3542 24.8083 18.8131 25.9555 15.2201 28.555C12.5253 30.5045 10.5361 33.7528 6.55776 40.2494C2.57945 46.7461 0.590342 49.9944 0.146999 53.1695C-0.444209 57.4029 0.77261 61.6844 3.52969 65.0722C4.78812 66.6186 6.55666 67.9179 9.30154 69.544C13.3368 71.9348 15.9332 76.0073 15.9329 80.5C15.9327 84.9927 13.3364 89.0644 9.30154 91.4544C6.55623 93.0813 4.78735 94.3814 3.52884 95.9278C0.771764 99.3153 -0.444971 103.596 0.146152 107.83C0.589495 111.005 2.57869 114.254 6.55691 120.75C10.5352 127.246 12.5244 130.495 15.2192 132.444C18.8122 135.044 23.3533 136.191 27.8435 135.634C29.8932 135.379 31.9716 134.585 34.8381 133.157C39.0511 131.057 44.0894 130.974 48.2162 133.219C52.3431 135.466 54.7851 139.622 54.9632 144.112C55.0844 147.166 55.394 149.261 56.1852 151.061C57.9183 155.006 61.2426 158.141 65.4269 159.775C68.5647 161 72.5431 161 80.4999 161C88.4567 161 92.4351 161 95.5729 159.775C99.7572 158.141 103.081 155.006 104.814 151.061C105.606 149.261 105.916 147.166 106.037 144.111C106.215 139.622 108.656 135.466 112.783 133.219C116.91 130.973 121.948 131.057 126.161 133.157C129.028 134.585 131.106 135.378 133.155 135.633C137.646 136.191 142.187 135.044 145.779 132.444C148.475 130.495 150.464 127.246 154.442 120.749C158.42 114.253 160.409 111.005 160.853 107.83C161.444 103.596 160.227 99.3145 157.471 95.927C156.211 94.3806 154.443 93.0805 151.697 91.4544C147.663 89.0644 145.067 84.9919 145.067 80.4992C145.067 76.0065 147.663 71.9356 151.697 69.5456C154.444 67.9187 156.212 66.6194 157.471 65.0722C160.228 61.685 161.445 57.4035 160.854 53.17C160.41 49.9949 158.421 46.7466 154.443 40.25C150.465 33.7534 148.476 30.5051 145.78 28.5555C142.187 25.9561 137.646 24.8089 133.156 25.3663C131.106 25.6207 129.028 26.4149 126.162 27.8433C121.949 29.9427 116.91 30.0267 112.784 27.7802C108.657 25.5339 106.215 21.3781 106.036 16.8884C105.915 13.8338 105.606 11.7396 104.814 9.93877C103.081 5.99387 99.7572 2.8596 95.5729 1.22553ZM80.4999 104.65C94.6467 104.65 106.114 93.838 106.114 80.5C106.114 67.162 94.6467 56.35 80.4999 56.35C66.3531 56.35 54.8853 67.162 54.8853 80.5C54.8853 93.838 66.3531 104.65 80.4999 104.65Z" fill="#EC5B15"/>
</g>
<defs>
<clipPath id="clip0_119_2">
<rect width="161" height="161" fill="white"/>
</clipPath>
</defs>
</svg>
